<svg id="Layer_2" data-name="Layer 2" xmlns="http://www.w3.org/2000/svg" viewBox="0 0 171 79"><defs><style>.cls-1{fill:#fff;}</style></defs><path class="cls-1" d="M1.35,3.94h10.1c10.28,0,15.66,7.12,15.66,15.91,0,9.15-5.8,15.91-15.28,15.91H1.35ZM11.7,33.48c7.87,0,12.8-5.26,12.8-13.59,0-8.66-5.34-13.67-13.17-13.67H3.91V33.48Z"/><path class="cls-1" d="M32.54,3.94h3.07V7H32.54Zm.29,31.82V13.51h2.49V35.76Z"/><path class="cls-1" d="M40.29,33.19l1.58-1.83a10.27,10.27,0,0,0,7.25,2.7c4.18,0,6.25-1.78,6.25-4.23,0-2.65-2.57-3.27-6.42-4.14-4.14-.91-7.87-2-7.87-6.22,0-3.76,3.06-6.42,8.33-6.42a11,11,0,0,1,8.16,3.15L55.91,18a9,9,0,0,0-6.55-2.77c-3.81,0-5.8,1.78-5.8,4.1,0,2.65,2.53,3.19,6.38,4.06,4.23.95,7.92,2.07,7.92,6.3,0,3.85-3.19,6.54-8.7,6.54A13,13,0,0,1,40.29,33.19Z"/><path class="cls-1" d="M59.93,13.51h4.93v-7h2.49v7h5.8v2.11h-5.8V29.83c0,2.57,1.11,4.1,4.22,4.1a10.92,10.92,0,0,0,1.58-.12v2a11.62,11.62,0,0,1-2.37.25c-4.06,0-5.92-2-5.92-6V15.62H59.93Z"/><path class="cls-1" d="M90.88,35.76l0-4h-.09a8.13,8.13,0,0,1-7.41,4.43c-4.39,0-6.92-2.65-6.92-6.34s2.49-5.42,5.72-6.09a61.15,61.15,0,0,1,8.7-.78V20.1c0-2.32-1.83-4.89-5.93-4.89-3.44,0-5.22,1.74-5.88,3.93l-2.2-.83c1-3.23,3.94-5.26,8.17-5.26,5.26,0,8.28,2.86,8.28,7.25V35.76Zm0-8.83V25a52,52,0,0,0-7.25.66c-3,.54-4.68,1.57-4.68,4.06s1.86,4.31,4.76,4.31A7.24,7.24,0,0,0,90.84,26.93Z"/><path class="cls-1" d="M100.33,13.51h2.4l0,4.14h.08a8.19,8.19,0,0,1,7.67-4.6c5,0,7.91,3.36,7.91,8.08V35.76h-2.49V21.67c0-3.52-1.86-6.46-6-6.46s-7.17,3.06-7.17,8V35.76h-2.48Z"/><path class="cls-1" d="M122,13.51h4.93v-7h2.49v7h5.8v2.11h-5.8V29.83c0,2.57,1.12,4.1,4.22,4.1a10.92,10.92,0,0,0,1.58-.12v2a11.6,11.6,0,0,1-2.36.25c-4.06,0-5.93-2-5.93-6V15.62H122Z"/><path class="cls-1" d="M42.77,59.59H37.25v12H30.17V40.68H44.66c6,0,10.38,3.26,10.38,9A8.57,8.57,0,0,1,49.41,58l6.51,13.6H48.16ZM37.25,54.2h6.6a3.77,3.77,0,0,0,4.07-4,3.75,3.75,0,0,0-4.07-4h-6.6Z"/><path class="cls-1" d="M77.49,68.2C75.56,70.5,72.83,72,68.36,72c-7.65,0-11.51-4.54-11.51-11.18S60.67,49.53,67.8,49.53s10.46,4.63,10.46,10.62a16.29,16.29,0,0,1-.16,2.54H63.53c.36,2.77,1.73,4.55,5,4.55a5.84,5.84,0,0,0,4.87-2.5Zm-5.71-9.49c-.24-2.7-1.29-4.39-4-4.39s-4,1.69-4.23,4.39Z"/><path class="cls-1" d="M94.39,71.58l-.16-3h-.08A7,7,0,0,1,87.83,72c-4.26,0-7-2.77-7-6.6A5.59,5.59,0,0,1,85,59.75c2.25-.76,5.47-1,9-1.08V57.38c0-1.81-1.25-3-3.42-3a3.93,3.93,0,0,0-4,2.7l-5-2.5c1.61-3.38,4.5-5,9.33-5,6.48,0,9.66,2.94,9.66,7.69V71.58Zm-.44-8V62.41c-1.25.08-2.74.2-4,.4s-2.54.68-2.54,2.25c0,1.29,1,2.34,2.82,2.34A3.63,3.63,0,0,0,94,63.53Z"/><path class="cls-1" d="M104.37,60.92c0-6.44,3.54-11.39,9.13-11.39a8,8,0,0,1,6.36,3.06h.08V40.68h6.68v30.9h-6.23l-.13-3.1h-.08A8.13,8.13,0,0,1,113.34,72C107.71,72,104.37,67.2,104.37,60.92Zm15.81-.16c0-3.75-1.52-6.28-4.54-6.28s-4.51,2.74-4.51,6.36c0,3.38,1.45,6.23,4.51,6.23S120.18,64.34,120.18,60.76Z"/><path class="cls-1" d="M151.05,68.2c-1.93,2.3-4.67,3.82-9.14,3.82-7.64,0-11.5-4.54-11.5-11.18s3.82-11.31,10.94-11.31,10.46,4.63,10.46,10.62a16.29,16.29,0,0,1-.16,2.54H137.08c.37,2.77,1.74,4.55,5,4.55a5.81,5.81,0,0,0,4.86-2.5Zm-5.72-9.49c-.24-2.7-1.28-4.39-4-4.39s-3.94,1.69-4.23,4.39Z"/><path class="cls-1" d="M155.43,50h6.2l.16,3.42h.08c1.21-2.33,3-3.82,5.39-3.82a6.41,6.41,0,0,1,2.05.36v5.56a14.11,14.11,0,0,0-2.05-.16c-3.34,0-5.15,2-5.15,4.38V71.58h-6.68Z"/></svg>
